<?xml version="1.0" standalone="no"?>
<!DOCTYPE svg PUBLIC "-//W3C//DTD SVG 20010904//EN"
 "http://www.w3.org/TR/2001/REC-SVG-20010904/DTD/svg10.dtd">
<svg version="1.0" xmlns="http://www.w3.org/2000/svg"
 width="400.000000pt" height="400.000000pt" viewBox="0 0 400.000000 400.000000"
 preserveAspectRatio="xMidYMid meet">
<metadata>
Created by potrace 1.14, written by Peter Selinger 2001-2017
</metadata>
<g transform="translate(0.000000,400.000000) scale(0.100000,-0.100000)"
fill="#000000" stroke="none">
<path d="M33 3938 c4 -35 10 -87 13 -117 6 -42 4 -52 -5 -46 -7 4 -5 -4 4 -19
11 -16 14 -32 10 -43 -5 -10 -7 -21 -7 -25 1 -5 -3 -8 -8 -8 -6 0 -8 11 -4 25
4 15 2 25 -5 25 -6 0 -11 -6 -11 -12 0 -9 -4 -8 -10 2 -6 10 -10 -643 -10
-1852 l0 -1868 2000 0 2000 0 0 858 0 859 -22 11 -23 11 23 7 c12 3 22 13 22
21 0 8 -4 12 -9 9 -4 -3 -16 1 -27 8 -15 12 -16 16 -5 29 7 9 10 21 7 26 -4 5
-2 12 4 16 17 11 11 25 -11 25 l-20 0 20 26 c27 34 26 42 -1 47 -17 3 -14 5
10 6 31 1 32 3 32 41 0 29 -4 40 -15 40 -8 0 -15 5 -15 10 0 6 7 10 15 10 13
0 15 60 15 484 l0 484 -27 6 c-16 3 -67 13 -116 22 -48 9 -85 19 -83 22 5 4
135 -12 199 -24 l27 -6 0 476 0 476 -220 0 c-168 0 -222 -3 -225 -12 -3 -7 -8
-53 -12 -103 -7 -77 -11 -90 -27 -93 -15 -3 -17 0 -12 14 8 20 17 92 19 154 2
29 -2 36 -21 38 -18 3 -23 -2 -28 -27 -9 -43 -21 -47 -16 -5 4 33 3 34 -31 34
l-35 0 10 -36 c11 -42 -1 -65 -25 -45 -11 9 -17 8 -26 -3 -31 -37 -121 -27
-131 15 -7 30 -46 38 -64 13 -14 -19 -36 -12 -36 12 0 8 -4 14 -10 14 -5 0
-10 7 -10 15 0 8 -7 15 -15 15 -13 0 -15 -7 -9 -36 6 -33 5 -35 -17 -32 -24 3
-24 3 -24 -99 1 -66 -3 -103 -10 -103 -5 0 -16 -9 -23 -20 -10 -16 -8 -26 9
-60 13 -25 28 -40 40 -40 35 0 52 -65 24 -93 -12 -13 -12 -15 5 -20 18 -5 18
-6 2 -41 -17 -37 -32 -47 -32 -21 0 8 -7 15 -15 15 -10 0 -14 -7 -12 -22 2
-13 0 -61 -4 -107 -10 -93 -2 -118 31 -101 25 13 80 13 80 -1 0 -5 4 -8 10 -4
10 6 50 -15 50 -27 0 -4 -10 -22 -22 -41 -21 -31 -28 -35 -79 -39 -82 -6 -106
-25 -113 -90 -3 -29 -14 -136 -26 -238 -40 -352 -63 -475 -98 -514 -20 -22
-79 -245 -146 -551 -154 -706 -156 -715 -190 -760 -51 -66 -142 -119 -260
-149 -61 -16 -84 -13 -67 8 6 7 12 46 15 87 5 79 14 127 26 144 16 21 33 133
34 215 1 79 3 88 29 115 15 16 27 33 27 36 0 4 -17 10 -37 14 -48 9 -93 32
-93 48 0 6 14 29 29 50 l29 38 -35 67 c-19 37 -39 72 -44 78 -22 27 -79 157
-79 179 0 60 51 124 99 125 25 0 91 -38 91 -53 0 -15 73 -78 87 -75 8 2 13 7
13 12 -1 5 4 13 12 17 10 7 9 9 -4 9 -22 0 -24 28 -3 36 9 4 15 19 15 38 0 17
7 41 15 53 l15 21 -95 -5 -95 -6 -14 35 c-8 19 -15 61 -15 94 1 108 -10 207
-25 229 -13 19 -13 26 -1 41 9 13 10 24 4 36 -6 12 -5 21 5 30 11 11 11 14 -1
23 -8 6 -16 32 -18 60 -1 27 -8 51 -13 53 -6 2 -8 10 -5 18 3 8 -1 21 -8 30
-8 10 -9 18 -3 22 17 12 25 42 9 36 -10 -4 -13 3 -13 25 1 17 5 31 10 31 4 0
8 7 8 15 0 8 -4 15 -8 15 -12 0 -14 78 -2 85 15 9 12 25 -4 25 -16 0 -29 44
-21 71 4 13 2 19 -9 19 -9 0 -16 5 -16 11 0 6 -12 23 -28 38 -26 27 -32 28
-202 39 -96 6 -269 14 -385 17 -310 9 -506 30 -621 66 -88 28 -100 39 -86 75
7 16 27 39 45 51 33 22 163 67 230 79 21 3 41 13 44 20 3 8 -2 74 -11 146 -8
73 -18 170 -22 214 l-6 82 26 -5 c14 -3 32 -1 39 5 21 18 38 -23 43 -102 3
-61 11 -161 19 -246 1 -14 3 -37 3 -52 2 -25 6 -28 40 -28 42 0 74 16 56 28
-16 10 -23 83 -11 103 6 9 7 25 2 35 -4 11 -9 24 -10 29 -1 6 -3 12 -5 15 -1
3 -4 27 -5 53 -3 53 -20 82 -31 54 -10 -27 -26 -20 -22 11 2 15 7 25 12 24 14
-6 26 21 15 35 -12 14 3 47 27 61 13 7 13 13 3 35 -13 29 -29 36 -29 13 0 -7
-7 -19 -15 -26 -12 -10 -15 -7 -21 14 -7 27 2 50 17 41 5 -4 9 -1 9 4 0 17
-61 13 -74 -4 -6 -9 -24 -17 -39 -19 -15 -1 -30 -5 -33 -9 -9 -9 -36 21 -29
33 4 7 -164 10 -506 10 l-512 0 6 -62z m1134 5 c-3 -10 -5 -4 -5 12 0 17 2 24
5 18 2 -7 2 -21 0 -30z m-53 -18 c3 -9 -1 -18 -10 -22 -19 -7 -28 2 -21 22 8
19 23 19 31 0z m116 -215 c0 -19 -11 -26 -23 -14 -8 8 3 34 14 34 5 0 9 -9 9
-20z m2217 -32 c-3 -8 -6 -5 -6 6 -1 11 2 17 5 13 3 -3 4 -12 1 -19z m-297
-318 c20 0 79 -28 81 -38 9 -47 4 -60 -29 -72 -25 -9 -37 -9 -45 -1 -6 6 -19
11 -29 11 -11 0 -18 6 -16 13 1 6 -2 22 -6 35 -11 32 1 79 17 63 6 -6 18 -11
27 -11z m209 -90 c21 0 10 -15 -30 -42 -45 -32 -59 -35 -59 -13 0 8 -6 15 -12
15 -9 0 -10 3 -2 8 6 4 14 20 18 37 11 42 27 48 52 20 12 -14 26 -25 33 -25z
m324 -177 c-7 -2 -19 -2 -25 0 -7 3 -2 5 12 5 14 0 19 -2 13 -5z m77 -12 c0
-4 -11 -6 -25 -3 -14 2 -25 6 -25 8 0 2 11 4 25 4 14 0 25 -4 25 -9z m-390
-181 c0 -5 -4 -10 -9 -10 -6 0 -13 5 -16 10 -3 6 1 10 9 10 9 0 16 -4 16 -10z
m10 -24 c0 -3 -4 -8 -10 -11 -5 -3 -10 -1 -10 4 0 6 5 11 10 11 6 0 10 -2 10
-4z m-79 -109 c0 -34 4 -71 8 -82 4 -11 4 -33 0 -50 -5 -16 -11 -43 -14 -58
-3 -16 -10 -25 -16 -21 -7 4 -9 -1 -5 -15 3 -11 9 -31 12 -42 4 -14 2 -19 -4
-15 -6 3 -13 2 -17 -4 -4 -6 -12 -5 -21 5 -9 8 -20 15 -25 15 -14 0 -11 -20 4
-20 6 -1 1 -10 -12 -21 -27 -22 -20 -39 9 -21 27 16 30 15 30 -8 0 -12 -6 -20
-12 -19 -7 1 -21 -1 -31 -6 -13 -5 -15 -11 -7 -20 8 -9 8 -15 0 -20 -5 -3 -10
-15 -10 -27 0 -14 -5 -18 -16 -14 -8 3 -27 -2 -42 -12 -14 -9 -23 -11 -19 -5
5 7 3 22 -3 33 -8 15 -8 25 -1 34 7 8 7 24 2 44 -13 42 -12 150 0 158 6 4 7
10 0 17 -5 7 -7 26 -6 42 2 17 5 46 7 65 3 37 33 80 55 80 7 0 13 5 13 10 0 6
-5 10 -12 10 -9 0 -9 3 -1 11 16 16 53 1 53 -22 0 -10 5 -19 10 -19 6 0 10 -7
10 -15 0 -31 19 -14 25 23 9 54 14 64 25 57 5 -3 10 -34 11 -68z m634 -997 c3
-5 1 -10 -4 -10 -6 0 -11 5 -11 10 0 6 2 10 4 10 3 0 8 -4 11 -10z m55 -108
l0 -27 -14 25 c-13 26 -11 44 5 35 5 -4 9 -18 9 -33z"/>
<path d="M1633 3918 c4 -46 13 -139 22 -208 8 -69 15 -145 15 -169 0 -37 2
-42 18 -36 9 4 72 8 139 10 67 1 125 5 130 8 5 3 48 4 96 1 81 -4 87 -3 87 15
0 11 5 23 11 26 7 5 4 15 -6 32 -12 18 -14 28 -6 36 8 8 11 5 11 -11 0 -12 4
-22 9 -22 5 0 12 -12 14 -27 2 -16 5 -3 5 27 2 74 -8 89 -43 66 -36 -24 -55
-7 -31 28 9 14 16 32 16 41 0 8 11 20 24 26 27 13 36 55 36 170 l0 69 -114 0
c-101 0 -115 -2 -119 -17 -4 -17 -5 -17 -6 0 -1 15 -16 17 -157 17 l-157 0 6
-82z m321 6 c3 -8 2 -12 -4 -9 -6 3 -10 10 -10 16 0 14 7 11 14 -7z m161 -163
c-9 -29 -22 -26 -28 6 -7 36 2 49 20 30 9 -9 13 -23 8 -36z"/>
<path d="M2786 3991 c-3 -4 -4 -18 -1 -30 5 -25 -3 -51 -16 -51 -5 0 -9 7 -9
15 0 17 -26 20 -36 4 -8 -13 -15 -386 -8 -411 7 -22 40 -23 62 -2 19 19 49
105 59 166 7 47 6 134 -3 246 -5 61 -8 72 -24 72 -10 0 -21 -4 -24 -9z"/>
<path d="M3135 3990 c-3 -5 -1 -10 4 -10 6 0 11 5 11 10 0 6 -2 10 -4 10 -3 0
-8 -4 -11 -10z"/>
<path d="M3300 3980 c0 -5 7 -10 15 -10 8 0 15 5 15 10 0 6 -7 10 -15 10 -8 0
-15 -4 -15 -10z"/>
<path d="M3244 3957 c-7 -19 4 -40 17 -32 5 4 9 -1 9 -10 0 -10 4 -13 13 -8 6
4 19 8 27 8 26 0 23 32 -4 39 -13 3 -31 9 -40 12 -9 4 -18 0 -22 -9z"/>
<path d="M1280 3934 c0 -14 4 -23 9 -20 5 3 7 15 4 26 -7 28 -13 25 -13 -6z"/>
<path d="M2615 3890 c-8 -13 15 -13 35 0 12 8 11 10 -7 10 -12 0 -25 -4 -28
-10z"/>
<path d="M1602 3841 c-1 -8 -10 -11 -20 -9 -30 8 -45 -19 -38 -70 7 -53 8 -54
29 -47 22 9 39 57 34 101 -2 22 -4 33 -5 25z"/>
<path d="M0 3754 c0 -8 5 -12 10 -9 6 3 10 10 10 16 0 5 -4 9 -10 9 -5 0 -10
-7 -10 -16z"/>
<path d="M2166 3741 c-4 -7 -5 -15 -2 -18 9 -9 19 4 14 18 -4 11 -6 11 -12 0z"/>
<path d="M3050 3570 c0 -5 5 -10 10 -10 6 0 10 5 10 10 0 6 -4 10 -10 10 -5 0
-10 -4 -10 -10z"/>
<path d="M2382 3550 c0 -14 2 -19 5 -12 2 6 2 18 0 25 -3 6 -5 1 -5 -13z"/>
</g>
</svg>
